<?xml version="1.0" encoding="utf-8"?>
<!-- Generator: Adobe Illustrator 23.0.0, SVG Export Plug-In . SVG Version: 6.00 Build 0)  -->
<svg version="1.1" id="Camada_1" xmlns="http://www.w3.org/2000/svg" xmlns:xlink="http://www.w3.org/1999/xlink" x="0px" y="0px"
	 viewBox="0 0 399.1 107.6" style="enable-background:new 0 0 399.1 107.6;" xml:space="preserve">
<style type="text/css">
	.st0{fill:#FCFCFC;}
</style>
<g id="Logo">
	<path class="st0" d="M92.2,58.6c-4.3-7.4-24.2-3.9-44.5,7.9c-3.8,2.2-7.3,4.5-10.5,6.9l1.1,9.6c0.3-0.1,0.6-0.2,0.9-0.2
		c3.5,0,6.4,2.9,6.4,6.4c0,3.5-2.9,6.4-6.4,6.4s-6.4-2.9-6.4-6.4c0-2.3,1.3-4.2,3.1-5.4l-1.1-8.6C22.3,85,15.4,95.4,18.7,101.1
		c4.3,7.4,24.2,3.9,44.5-7.9C83.5,81.4,96.5,66,92.2,58.6z"/>
	<path class="st0" d="M97.3,50.4c-7-12.1-22.5-16.9-39.4-14.1c-0.1-4.9-2.3-9.4-4.9-14c-6.9-12-23.6-15.7-33.5-13.5
		c-0.5-2.7-2.7-4.7-5.5-4.7c-3.2,0-5.7,2.6-5.7,5.7c0,1.7,0.8,3.2,1.9,4.2C2.7,19.2-0.5,37.4,6.6,49.7c2.7,4.7,5.2,8.7,9.5,11.3
		C5.9,74,2.8,89.4,9.6,101.1c0.3,0.5,0.7,0.9,1.1,1.4C7.5,92.2,22.2,74.4,45,61.2C68.6,47.5,92.2,44,98.5,53
		C98.2,52.1,97.8,51.3,97.3,50.4z M13.9,5.8c2,0,3.6,1.5,3.9,3.4c-1.1,0.3-2.2,0.7-3,1.2c-1.2,0.7-2.3,1.6-3.3,2.5
		c-0.9-0.7-1.6-1.8-1.6-3.1C9.9,7.6,11.7,5.8,13.9,5.8z"/>
	<g>
		<path class="st0" d="M108.7,104.6V51.3h13.4c4.1,0,7,0.2,8.7,0.5c1.8,0.3,3.3,0.9,4.6,1.6c1.9,1.1,3.4,2.7,4.3,4.6
			c1,1.9,1.5,4.1,1.5,6.7c0,2.3-0.5,4.4-1.4,6.2c-0.9,1.8-2.4,3.6-4.4,5.3c2.4,1.2,4.2,2.8,5.4,4.9s1.8,4.5,1.8,7.4
			c0,2.4-0.4,4.6-1.2,6.7c-0.8,2.1-1.9,3.9-3.4,5.4c-1.4,1.4-3.1,2.5-5.1,3.1s-5.2,0.9-9.4,0.9H108.7z M121.2,72.2h0.8
			c2.4,0,4.3-0.5,5.4-1.5c1.2-1,1.7-2.6,1.7-4.8c0-1.9-0.6-3.3-1.7-4.3c-1.1-1-2.8-1.5-4.9-1.5c-0.4,0-0.6,0-0.8,0
			c-0.2,0-0.3,0-0.4,0.1L121.2,72.2z M121.2,95.2h1.1c2.6,0,4.6-0.6,5.9-1.8c1.3-1.2,2-3,2-5.5c0-2.3-0.6-3.9-1.9-5
			c-1.3-1.1-3.3-1.6-6.1-1.6h-0.9L121.2,95.2L121.2,95.2z"/>
		<path class="st0" d="M171.6,104.6h-27.4V51.3h12.4v42.5h15V104.6z"/>
		<path class="st0" d="M168.9,104.6l11.6-53.3h14.8l11.5,53.3h-12.5l-1.6-10.2H183l-1.6,10.2H168.9z M184.3,84.8h7.2l-3.6-23.2
			L184.3,84.8z"/>
		<path class="st0" d="M227.8,84H240c0,0.3,0,0.7,0,1c0,0.4,0,0.9,0,1.7c0,6.5-1.4,11.3-4.3,14.5c-2.9,3.1-7.2,4.7-13.1,4.7
			c-3.5,0-6.4-0.6-8.9-1.7s-4.5-2.9-6-5.2c-1.1-1.7-1.8-4-2.3-6.9c-0.5-2.9-0.7-7.6-0.7-14c0-6.4,0.2-11.1,0.7-14s1.2-5.3,2.3-6.9
			c1.5-2.3,3.5-4,5.9-5.2c2.4-1.2,5.4-1.8,8.8-1.8c5.8,0,10.2,1.6,13.1,4.9s4.4,8.1,4.4,14.5V70L228,70c0-3.6-0.5-6.2-1.3-7.6
			c-0.8-1.5-2.1-2.2-3.9-2.2c-2,0-3.4,0.9-4.1,2.7s-1.1,6.5-1.1,14.2v1c0,8.2,0.4,13.3,1.1,15.1c0.7,1.9,2.1,2.8,4.1,2.8
			c1.9,0,3.2-0.7,3.9-2s1.1-3.9,1.1-7.5L227.8,84L227.8,84z"/>
		<path class="st0" d="M242.5,104.6V51.3H255v22.1l9.3-22.1H277l-11.5,23.3l11.8,29.9h-13.1l-6.5-19.3l-2.7,5.1v14.2L242.5,104.6
			L242.5,104.6z"/>
		<path class="st0" d="M275.1,104.6V51.3h13.4c4.1,0,7,0.2,8.7,0.5c1.8,0.3,3.3,0.9,4.6,1.6c1.9,1.1,3.4,2.7,4.3,4.6
			c1,1.9,1.5,4.1,1.5,6.7c0,2.3-0.5,4.4-1.4,6.2s-2.4,3.6-4.4,5.3c2.4,1.2,4.2,2.8,5.4,4.9c1.2,2.1,1.8,4.5,1.8,7.4
			c0,2.4-0.4,4.6-1.2,6.7c-0.8,2.1-1.9,3.9-3.4,5.4c-1.4,1.4-3.1,2.5-5.1,3.1s-5.2,0.9-9.4,0.9H275.1z M287.6,72.2h0.8
			c2.4,0,4.3-0.5,5.4-1.5s1.8-2.6,1.8-4.8c0-1.9-0.6-3.3-1.7-4.3c-1.1-1-2.8-1.5-5-1.5c-0.4,0-0.6,0-0.8,0c-0.2,0-0.3,0-0.5,0.1
			L287.6,72.2z M287.6,95.2h1.1c2.6,0,4.6-0.6,5.9-1.8s2-3,2-5.5c0-2.3-0.6-3.9-1.9-5s-3.3-1.6-6.1-1.6h-0.9L287.6,95.2L287.6,95.2z
			"/>
		<path class="st0" d="M310.6,104.6V51.3h29v10.3h-16.6v9.8h15.3v10.7h-15.3v11.6h16.6v10.8L310.6,104.6L310.6,104.6z"/>
		<path class="st0" d="M369,104.6h-27.4V51.3H354v42.5h15L369,104.6L369,104.6z"/>
		<path class="st0" d="M396.3,104.6h-27.4V51.3h12.5v42.5h15L396.3,104.6L396.3,104.6z"/>
	</g>
</g>
</svg>
