<?xml version="1.0" standalone="no"?>
<!DOCTYPE svg PUBLIC "-//W3C//DTD SVG 20010904//EN"
 "http://www.w3.org/TR/2001/REC-SVG-20010904/DTD/svg10.dtd">
<svg version="1.0" xmlns="http://www.w3.org/2000/svg"
 width="108.000000pt" height="108.000000pt" viewBox="0 0 108.000000 108.000000"
 preserveAspectRatio="xMidYMid meet">
<metadata>
Created by potrace 1.11, written by Peter Selinger 2001-2013
</metadata>
<g transform="translate(0.000000,108.000000) scale(0.100000,-0.100000)"
fill="#000000" stroke="none">
<path d="M133 1026 c-26 -22 -27 -27 -17 -55 10 -25 9 -32 -7 -47 -19 -17 -43
-82 -53 -145 -13 -77 25 -191 89 -266 l34 -40 -42 -83 c-40 -79 -42 -86 -42
-174 0 -71 4 -98 20 -126 l19 -35 7 48 c24 157 304 383 579 468 106 33 226 33
269 1 40 -29 39 -15 -2 40 -22 29 -55 54 -100 77 -60 31 -79 35 -169 40 l-101
6 -12 42 c-40 134 -166 226 -315 227 -42 1 -59 6 -77 24 -28 28 -45 28 -80 -2z
m64 -21 c2 -6 -10 -19 -27 -28 -30 -18 -30 -18 -30 6 0 13 3 27 7 31 10 10 46
3 50 -9z"/>
<path d="M740 524 c-69 -18 -264 -114 -308 -151 -32 -27 -34 -30 -27 -76 6
-36 11 -47 25 -47 49 0 68 -76 28 -104 -48 -34 -96 -2 -83 56 15 76 17 128 4
128 -20 0 -138 -126 -155 -165 -33 -80 -8 -125 74 -133 92 -8 237 39 386 126
109 64 257 210 275 270 11 37 10 47 -4 68 -30 46 -108 56 -215 28z"/>
</g>
</svg>
